<svg width="400" height="240" viewBox="0 0 400 240" fill="none" xmlns="http://www.w3.org/2000/svg">
<path d="M291.907 106.512L254.192 99.844C248.596 98.8518 247.528 91.2561 252.633 88.7548L287.044 71.9165C289.345 70.794 290.303 68.0069 289.175 65.6995L285.152 57.4324C284.032 55.1238 281.253 54.1616 278.952 55.292L244.542 72.1303C239.437 74.6317 234.12 69.1103 236.787 64.0751L254.749 30.1626C255.949 27.8975 255.087 25.0771 252.828 23.8722L244.722 19.5501C242.463 18.3452 239.651 19.2093 238.45 21.4743L220.489 55.3869C217.859 60.3522 210.517 59.1145 209.544 53.6818L204.165 15.4191C203.808 12.874 201.461 11.1012 198.923 11.459L189.821 12.7425C187.283 13.1004 185.516 15.4533 185.874 17.9984L191.253 56.2611C191.817 61.7595 185.099 64.9718 181.203 60.9266L154.592 33.3074C152.814 31.4624 149.881 31.4085 148.034 33.1923L141.435 39.588C139.596 41.3708 139.543 44.3122 141.323 46.1651L167.935 73.7923C171.887 77.894 168.298 84.6711 162.702 83.6789L124.988 77.011C122.466 76.5686 120.059 78.2541 119.619 80.7827L118.031 89.841C117.591 92.3696 119.272 94.7844 121.794 95.2269L159.508 101.895C165.105 102.887 166.172 110.483 161.067 112.984L126.657 129.822C124.355 130.945 123.397 133.732 124.525 136.039L128.549 144.314C129.67 146.623 132.449 147.585 134.749 146.455L169.159 129.616C174.265 127.115 179.582 132.636 176.922 137.67L158.961 171.583C157.76 173.848 158.623 176.668 160.882 177.873L168.988 182.195C171.247 183.4 174.059 182.536 175.259 180.271L193.221 146.359C195.85 141.393 203.193 142.631 204.167 148.072L209.545 186.334C209.903 188.879 212.25 190.652 214.787 190.294L223.89 189.011C226.427 188.653 228.194 186.3 227.836 183.755L222.458 145.492C221.894 139.994 228.611 136.782 232.506 140.819L259.118 168.446C260.896 170.291 263.829 170.345 265.676 168.561L272.276 162.165C274.115 160.383 274.166 157.433 272.388 155.588L245.776 127.961C241.824 123.859 245.412 117.082 251.016 118.073L288.731 124.741C291.252 125.184 293.659 123.498 294.1 120.97L295.686 111.903C296.127 109.375 294.445 106.96 291.924 106.518L291.907 106.512Z" fill="#D1FFDB"/>
<path fill-rule="evenodd" clip-rule="evenodd" d="M195.004 122.382C194.429 122.036 193.74 122.049 193.194 122.354C192.269 121.204 191.414 120.31 190.696 119.655C190.36 119.348 190.268 118.827 190.375 118.355C190.906 118.381 191.443 118.174 191.821 117.743C195.062 114.049 196.091 108.942 196.298 105.775C208.441 104.834 214.615 95.5547 216.244 90.7639C216.518 89.9594 216.193 89.0955 215.508 88.6575C215.723 88.0553 215.898 87.4791 216.037 86.9385C216.195 86.3256 216.899 86.0053 217.461 86.2957C217.749 86.4448 218.037 86.5861 218.325 86.7198C218.386 86.7729 218.451 86.8226 218.52 86.8682C219.957 87.8136 222.432 89.0042 225.382 89.67C227.29 90.1007 229.45 90.3233 231.684 90.0861C231.329 90.6238 231.274 91.3348 231.6 91.9421C231.631 91.999 231.724 92.2233 231.856 92.7014C231.979 93.146 232.11 93.7144 232.245 94.3871C232.515 95.7303 232.787 97.4106 233.038 99.192C233.062 99.3611 233.086 99.5308 233.109 99.7011C231.522 98.9694 229.797 99.1567 228.427 99.7235C226.796 100.399 225.263 101.77 224.704 103.481C224.394 104.43 224.911 105.451 225.859 105.762C226.806 106.072 227.826 105.554 228.136 104.605C228.286 104.144 228.872 103.466 229.763 103.084C229.851 103.586 230.088 104.063 230.492 104.44C231.047 104.959 231.741 105.13 232.325 105.112C232.808 105.097 233.292 104.953 233.719 104.692C233.893 106.314 234.025 107.769 234.096 108.834C234.15 109.636 233.882 111.361 233.256 113.753C232.652 116.062 231.774 118.773 230.769 121.426C229.761 124.082 228.641 126.636 227.56 128.641C227.019 129.645 226.505 130.48 226.038 131.11C225.546 131.774 225.203 132.077 225.04 132.176C223.967 132.821 221.518 133.418 218.311 133.258C217.253 133.205 216.14 133.07 215.002 132.837C214.569 132.542 214.046 132.37 213.482 132.37C213.352 132.37 213.216 132.364 213.073 132.352C211.453 131.866 209.817 131.17 208.248 130.22C207.766 129.928 207.203 129.889 206.711 130.063C206.274 129.833 205.865 129.607 205.495 129.396C203.897 128.484 202.333 129.166 201.563 129.834C201.279 130.081 200.988 130.421 200.758 130.834C200.09 127.725 198.443 124.448 195.004 122.382ZM218.131 136.869C217.346 136.83 216.535 136.752 215.706 136.63C215.217 137.334 214.403 137.794 213.482 137.794C211.469 137.794 209.342 137.146 207.57 136.438C207.086 136.245 206.61 136.039 206.149 135.829C206.032 138.523 204.94 140.867 203.375 142.783C201.475 145.108 198.881 146.826 196.445 148.017C204.564 153.975 215.069 158.158 228.749 154.854C229.906 154.575 231.069 155.085 231.672 156.039C233.76 152.554 233.872 147.5 232.879 142.964C231.139 143.205 229.702 143.223 228.542 143.102C228.953 144.211 229.452 145.226 230.042 146.014C230.64 146.813 230.478 147.946 229.681 148.545C228.883 149.145 227.752 148.983 227.153 148.184C225.202 145.578 224.207 141.694 223.774 138.894C223.621 137.907 224.296 136.983 225.281 136.83C225.725 136.762 226.155 136.861 226.509 137.08C227.121 137.027 227.751 137.182 228.284 137.553C228.399 137.591 228.636 137.653 229.018 137.698C229.668 137.774 230.669 137.79 232.078 137.599C232.391 136.582 233.113 135.752 234.22 135.46C239.914 133.957 248.865 133.705 256.83 139.786C258.087 140.746 258.641 142.346 258.32 143.897C257.59 147.428 256.208 152.57 254.532 157.336L254.895 159.522C255.19 159.477 255.497 159.48 255.807 159.539C261.627 160.64 270.993 162.212 278.957 162.522C282.972 162.679 286.407 162.503 288.802 161.895C291.393 161.236 291.557 160.441 291.575 160.265C291.73 158.775 293.062 157.693 294.55 157.849C294.794 157.875 295.027 157.932 295.246 158.017C295.258 157.791 295.27 157.558 295.283 157.319C295.302 156.959 295.322 156.584 295.342 156.196L295.342 156.193L295.342 156.193L295.343 156.189L295.344 156.167L295.356 155.934L295.403 155.04C295.233 155.083 295.057 155.11 294.875 155.119C293.382 155.193 292.111 154.04 292.037 152.544C291.815 148.043 292.975 134.984 298.934 116.47C299.131 115.86 299.523 115.367 300.019 115.039C300.307 113.445 300.42 112.471 300.438 112.094C300.486 111.096 301.331 110.326 302.327 110.373C303.323 110.421 304.092 111.268 304.045 112.266C304.019 112.813 303.889 113.911 303.593 115.567C304.166 116.257 304.384 117.217 304.089 118.135C302.819 122.079 301.779 125.751 300.931 129.12C300.477 132.883 300.091 137.562 299.77 142.283C299.42 147.427 299.155 152.458 298.955 156.265L298.954 156.272L298.954 156.274L298.954 156.277C298.849 158.269 298.762 159.925 298.689 161.086C298.303 167.284 294.12 169.596 292.274 169.904L292.222 169.912L292.17 169.918C283.349 170.862 275.311 171.003 268.9 170.56C265.695 170.339 262.871 169.969 260.544 169.472C258.463 169.027 256.664 168.456 255.338 167.724C256.13 170.633 256.809 174.572 256.809 179.532C256.809 183.272 256.111 186.848 255.41 190.439C254.18 196.741 252.941 203.087 255.455 210.436C256.638 213.892 256.369 217.839 253.76 220.391C250.348 223.727 245.419 228.126 241.013 230.46C226.099 238.36 198.04 231.486 187.913 228.588C185.629 227.934 183.678 226.297 183.103 224.023C181.909 225.354 180.597 226.532 179.147 227.469C175.343 229.927 170.749 230.626 165.304 228.491C161.872 227.145 160.088 223.839 159.213 220.126C158.329 216.377 158.257 211.777 158.593 207.077C159.267 197.654 161.627 187.296 163.061 181.363C163.295 180.392 164.271 179.796 165.24 180.031C166.209 180.266 166.805 181.243 166.57 182.213C165.87 185.112 164.963 189.01 164.143 193.302C164.853 192.894 165.739 192.812 166.551 193.158C167.928 193.744 168.569 195.336 167.984 196.715C164.293 205.413 164.113 211.631 165.358 215.512C166.57 219.288 169.116 220.96 171.681 221.124C172.817 221.196 174.146 220.616 175.823 218.692C177.491 216.779 179.099 213.987 180.772 210.681C181.451 209.341 182.177 207.838 182.917 206.305L182.917 206.305L182.917 206.305L182.918 206.303C183.879 204.313 184.864 202.272 185.801 200.475C187.517 197.183 189.437 193.947 191.691 191.645C195.835 187.415 199.831 186.627 202.608 186.079C202.888 186.024 203.155 185.972 203.409 185.918C204.793 185.626 205.433 185.375 205.892 184.974C206.314 184.606 206.916 183.805 207.375 181.673C207.402 181.545 207.438 181.422 207.482 181.303C207.033 181.667 206.451 181.871 205.825 181.833L198.395 181.384C195.594 181.215 193.282 179.129 192.821 176.357L192.782 176.119C192.778 179.054 191.629 181.627 190.523 183.301C190.033 184.043 189.625 184.876 189.284 185.759C188.442 187.945 186.873 190.05 185.129 192.021C183.653 193.69 181.953 195.368 180.306 196.993L180.306 196.994L180.303 196.996C179.996 197.299 179.691 197.6 179.389 197.899C177.437 199.835 175.629 201.686 174.249 203.483C172.853 205.302 172.042 206.881 171.858 208.257C171.725 209.247 170.817 209.941 169.828 209.808C168.84 209.676 168.147 208.766 168.279 207.776C168.59 205.462 169.856 203.273 171.387 201.279C172.934 199.264 174.904 197.258 176.849 195.33C177.165 195.017 177.48 194.706 177.793 194.396C179.441 192.769 181.039 191.191 182.427 189.623C183.616 188.279 184.58 187.018 185.255 185.832C184.421 186.04 183.55 186.121 182.676 186.063C178.109 185.758 170.529 184.176 165.052 177.484C164.817 177.197 164.651 176.875 164.551 176.54C164.38 176.268 164.288 176.008 164.288 175.765C164.288 173.515 166.698 162.819 172.916 154.562C170.714 152.724 169.489 150.726 169.019 148.818C168.642 148.698 168.271 148.559 167.912 148.401C166.27 147.682 164.722 146.509 163.949 144.788C163.495 143.778 163.355 142.781 163.292 141.894C163.264 141.499 163.251 141.161 163.239 140.849L163.239 140.849C163.221 140.387 163.205 139.98 163.146 139.522C163.059 138.845 162.891 138.284 162.538 137.775C162.183 137.263 161.577 136.709 160.463 136.166C159.865 135.875 159.616 135.154 159.907 134.555C160.198 133.956 160.918 133.707 161.516 133.998C162.904 134.675 163.871 135.47 164.515 136.4C165.161 137.332 165.417 138.304 165.534 139.214C165.603 139.751 165.629 140.373 165.653 140.928V140.928C165.665 141.218 165.677 141.491 165.693 141.723C165.748 142.491 165.859 143.163 166.144 143.799C166.584 144.777 167.54 145.599 168.838 146.176C168.892 145.705 168.991 145.25 169.133 144.814C169.679 143.13 170.877 141.759 172.396 141.254C174.018 140.714 175.75 141.249 176.969 142.899C177.586 143.735 177.982 144.581 178.07 145.424C178.162 146.306 177.906 147.098 177.382 147.727C176.413 148.891 174.695 149.326 173.106 149.388C172.667 149.404 172.213 149.394 171.752 149.356C172.234 150.423 173.075 151.564 174.428 152.694C176.786 149.99 179.613 147.678 182.967 146.21C183.511 145.972 184.084 145.913 184.661 145.984C185.511 145.015 186.633 144.199 187.762 143.508C189.041 142.725 190.463 142.022 191.778 141.397C192.127 141.231 192.466 141.071 192.794 140.917C193.734 140.475 194.578 140.078 195.302 139.694C195.783 139.44 196.16 139.217 196.438 139.022C196.692 138.845 196.785 138.743 196.802 138.725C196.805 138.722 196.805 138.722 196.803 138.724C196.905 138.576 197.184 137.927 197.369 136.746C197.543 135.641 197.603 134.272 197.435 132.845C197.375 132.337 197.288 131.831 197.171 131.331C194.5 133.608 189.04 135.964 181.836 133.259C180.922 132.966 180.026 132.564 179.15 132.048C178.804 131.866 178.454 131.672 178.102 131.466C174.826 129.552 172.665 126.489 171.511 123.172C170.499 120.756 170.272 118.298 170.537 116.019C170.712 113.516 171.446 111.243 172.69 109.618C173.395 108.409 174.216 107.359 175.077 106.544C175.036 106.3 174.922 106.078 174.725 105.919C167.365 99.9979 166.012 92.8514 171.031 82.0444C174.675 74.1977 180.965 72.1678 185.539 72.1207C185.722 71.9684 185.911 71.8224 186.106 71.6832C187.397 70.7595 188.922 70.1221 190.51 69.7243C192.166 62.7437 199.268 56.0957 210.473 55.6761C220.344 55.3065 225.526 60.7265 227.792 65.1778C228.818 65.2458 229.851 65.4788 230.806 65.9321C232.376 66.6775 233.693 67.9731 234.673 69.3755C239.875 70.5596 245.719 73.8627 247.454 82.1951C248.764 88.4834 247.589 95.0429 243.1 98.1447C242.692 98.4266 242.532 98.968 242.705 99.4333C244.014 102.952 243.998 110.545 237.389 111.875C237.222 112.757 237.001 113.703 236.748 114.67C236.107 117.121 235.188 119.956 234.144 122.71C233.101 125.459 231.918 128.169 230.738 130.359C230.148 131.453 229.542 132.449 228.937 133.265C228.357 134.049 227.674 134.81 226.897 135.277C224.962 136.44 221.694 137.048 218.131 136.869ZM184.699 215.345C183.485 217.552 182.177 219.563 180.742 221.236C182.539 218.916 184.135 216.034 185.603 213.135C186.414 211.533 187.153 209.996 187.88 208.486L187.881 208.485L187.882 208.483L187.882 208.483L187.884 208.479C188.344 207.523 188.799 206.577 189.264 205.633L189.178 205.832L189.014 206.211C188.127 207.883 187.259 209.792 186.421 211.979C185.876 213.115 185.305 214.244 184.699 215.345ZM201.245 192.425C199.775 192.966 198.2 193.556 196.774 194.319C199.218 192.293 201.413 191.853 203.676 191.399C203.773 191.38 203.87 191.36 203.967 191.341C204.065 191.321 204.164 191.301 204.263 191.281C203.417 191.627 202.525 191.955 201.598 192.295L201.598 192.296L201.597 192.296L201.597 192.296C201.48 192.339 201.363 192.382 201.245 192.425ZM210.172 178.817C210.108 179.045 210.088 179.288 210.119 179.533C209.424 179.507 208.761 179.752 208.255 180.189C208.335 179.947 208.378 179.687 208.377 179.417L208.334 168.77L209.42 177.723C209.42 177.723 209.829 177.995 210.172 178.817ZM254.437 164.912C254.417 164.858 254.397 164.805 254.378 164.753C254.408 164.764 254.439 164.775 254.471 164.785C254.479 164.787 254.486 164.79 254.494 164.792C254.504 164.795 254.513 164.798 254.523 164.801C254.516 164.81 254.509 164.819 254.501 164.827L254.495 164.836L254.489 164.842L254.484 164.849C254.474 164.862 254.464 164.875 254.454 164.888L254.447 164.898L254.437 164.912ZM190.375 147.075C190.206 147.984 190.304 148.992 190.742 149.9C189.918 149.308 189.192 148.718 188.586 148.138C188.427 147.986 188.26 147.836 188.085 147.688C188.511 147.334 189.033 146.968 189.646 146.593C189.99 146.382 190.35 146.176 190.723 145.973C190.562 146.328 190.445 146.699 190.375 147.075ZM234.274 89.5976L234.233 89.6089C234.245 89.6176 234.258 89.6265 234.27 89.6356L234.272 89.6191L234.274 89.5976ZM307.425 83.1926C305.959 85.7049 303.483 87.9649 301.232 87.7128C300.752 87.659 300.296 87.5274 299.867 87.3316C299.483 88.5164 298.769 89.4087 298.283 89.8684C296.4 92.0463 295.342 93.9446 294.732 95.6679C294.114 97.4133 293.923 99.0669 293.87 100.804C293.849 101.489 293.853 102.204 293.857 102.948V102.949C293.874 105.884 293.892 109.28 292.406 113.108C289.695 120.087 284.755 136.397 282.612 143.727C282.331 144.685 281.329 145.235 280.372 144.954C279.415 144.673 278.866 143.669 279.147 142.711C281.279 135.418 286.263 118.949 289.041 111.797C290.255 108.67 290.248 106.108 290.239 103.263C290.237 102.437 290.234 101.588 290.261 100.694C290.32 98.7516 290.54 96.6883 291.329 94.459C292.119 92.2275 293.449 89.9175 295.627 87.4163L295.707 87.3247L295.798 87.2446C295.859 87.1915 296.063 86.976 296.244 86.6454C296.42 86.3245 296.525 85.9857 296.525 85.6606C296.525 85.1883 296.706 84.7582 297.002 84.4361C296.286 83.0628 295.947 81.45 296.111 79.9834C296.48 76.6754 300.508 72.1887 303.811 72.5587C305.034 72.6956 306.07 73.2612 306.873 74.0872C307.592 73.7387 308.483 73.9027 309.028 74.5393C309.679 75.2998 310.676 76.5853 311.611 78.0347C312.527 79.4552 313.477 81.1749 313.912 82.774C314.052 83.2861 313.957 83.8067 313.693 84.2217C313.89 84.6607 314.048 85.2501 314.166 85.8566C314.304 86.5675 314.414 87.4454 314.445 88.4281C314.507 90.383 314.262 92.8463 313.228 95.2627C312.428 97.1323 310.727 99.8274 309.021 102.334C307.287 104.883 305.446 107.381 304.276 108.91C303.669 109.703 302.536 109.852 301.745 109.245C300.954 108.637 300.804 107.502 301.411 106.71C302.547 105.225 304.347 102.781 306.038 100.297C307.757 97.7716 309.265 95.3437 309.909 93.8382C310.681 92.0356 310.887 90.1294 310.836 88.5434C310.811 87.7557 310.723 87.0703 310.622 86.5476C310.571 86.2862 310.519 86.0753 310.473 85.9199L310.468 85.9021L310.463 85.8883C310.459 85.8747 310.455 85.8618 310.451 85.8499C310.444 85.8256 310.437 85.8047 310.431 85.7871L310.423 85.7791L310.419 85.7748C310.414 85.7689 310.408 85.7627 310.401 85.7562C310.297 85.6489 310.141 85.5042 309.922 85.3145C309.663 85.0894 309.389 84.8614 309.081 84.6053L309.08 84.6049C308.837 84.4027 308.572 84.1829 308.278 83.9332C308.01 83.7065 307.721 83.4582 307.425 83.1926ZM154.99 119.071C157.56 118.261 160.327 119.782 161.172 122.469C161.799 124.461 161.394 126.301 161.117 127.267C160.797 128.385 160.32 129.411 159.912 130.19C159.49 130.995 159.056 131.699 158.735 132.193C158.572 132.444 158.432 132.65 158.329 132.798C158.277 132.873 158.234 132.934 158.202 132.979C158.185 133.002 158.172 133.021 158.161 133.036L158.147 133.056L158.141 133.063L158.138 133.068C158.138 133.068 158.137 133.069 154.205 129.94C153.166 134.878 153.165 134.878 153.164 134.877L153.158 134.876L153.148 134.873L153.123 134.867C153.103 134.862 153.079 134.855 153.051 134.848C152.994 134.833 152.919 134.813 152.828 134.787C152.647 134.736 152.4 134.664 152.107 134.571C151.531 134.387 150.726 134.105 149.865 133.72C149.033 133.348 147.976 132.804 146.991 132.046C146.083 131.347 144.684 130.046 144.04 127.998C143.195 125.311 144.593 122.475 147.163 121.665C148.794 121.15 150.506 121.576 151.754 122.643C152.135 120.992 153.313 119.601 154.99 119.071ZM154.205 129.94L158.137 133.069L157.076 134.524C156.575 135.211 155.726 135.52 154.906 135.314L153.166 134.878L154.205 129.94ZM192.186 172.529L191.538 168.627C191.549 169.397 191.536 170.17 191.501 170.939C191.779 171.471 192.005 172.002 192.186 172.529ZM193.19 162.701C192.981 162.719 192.782 162.762 192.594 162.828C192.919 162.63 193.294 162.504 193.702 162.478L202.069 161.945L193.19 162.701ZM258.624 144.535C258.729 143.542 259.618 142.822 260.61 142.927C261.062 142.976 261.556 143.027 262.083 143.083L262.104 143.085L262.104 143.085L262.106 143.085L262.107 143.085C265.179 143.408 269.371 143.849 273.128 144.348C275.332 144.642 277.422 144.959 279.066 145.292C279.885 145.457 280.631 145.634 281.239 145.823C281.543 145.918 281.843 146.024 282.114 146.147C282.362 146.259 282.697 146.432 282.992 146.699C283.732 147.368 283.79 148.511 283.121 149.252C282.479 149.964 281.4 150.046 280.661 149.458C280.652 149.454 280.642 149.449 280.63 149.443C280.539 149.402 280.39 149.345 280.169 149.277C279.728 149.14 279.117 148.991 278.352 148.837C276.827 148.528 274.832 148.223 272.653 147.933C268.95 147.441 264.816 147.006 261.74 146.683L261.738 146.683L261.738 146.683L261.728 146.682C261.193 146.625 260.691 146.573 260.229 146.524C259.237 146.418 258.519 145.528 258.624 144.535ZM280.692 149.474C280.692 149.474 280.69 149.473 280.686 149.471C280.69 149.473 280.692 149.474 280.692 149.474ZM301.209 89.2157C302.12 88.8091 303.187 89.2188 303.593 90.1308C304.233 91.5688 304.803 94.8949 302.893 98.226C302.397 99.092 301.293 99.3908 300.429 98.8936C299.564 98.3963 299.266 97.2912 299.762 96.4252C300.997 94.2713 300.554 92.1857 300.295 91.6034C299.889 90.6913 300.298 89.6223 301.209 89.2157ZM228.212 137.525C228.212 137.525 228.217 137.528 228.23 137.533C228.223 137.529 228.218 137.527 228.215 137.526C228.213 137.525 228.212 137.525 228.212 137.525ZM221.312 115.058C221.038 111.601 220.202 109.336 219.204 107.878C218.877 108.453 218.371 108.899 217.764 109.157C216.661 109.626 214.839 109.481 214.089 107.791C213.882 107.323 213.888 106.815 214.066 106.375C213.818 106.421 213.563 106.494 213.304 106.594C212.072 107.071 211.212 107.993 210.983 108.683C210.667 109.63 209.645 110.142 208.699 109.827C207.753 109.511 207.242 108.487 207.557 107.54C207.698 107.117 207.893 106.711 208.132 106.327C207.997 105.8 208.065 105.222 208.366 104.718C210.143 101.752 214.292 100.343 218.016 101.718C221.948 103.169 224.932 107.405 225.511 114.725C225.603 115.887 224.737 116.903 223.577 116.995C222.418 117.087 221.403 116.22 221.312 115.058ZM213.509 120.725C214.27 119.534 215.852 119.186 217.041 119.948L219.074 121.25L220.405 120.563C221.661 119.916 223.203 120.41 223.849 121.668C224.496 122.926 224.002 124.47 222.747 125.118L221.529 125.746C221.637 126.217 221.605 126.725 221.406 127.206C220.896 128.436 219.488 129.019 218.26 128.509L213.479 126.521C212.251 126.011 211.669 124.6 212.178 123.371C212.375 122.895 212.707 122.516 213.11 122.26C213.078 121.737 213.206 121.2 213.509 120.725ZM173.014 146.978C172.44 147.001 171.827 146.963 171.209 146.865C171.219 146.381 171.298 145.941 171.422 145.558C171.784 144.443 172.508 143.757 173.155 143.542C173.698 143.361 174.375 143.441 175.034 144.333C175.498 144.962 175.648 145.404 175.676 145.674C175.7 145.906 175.643 146.051 175.534 146.183C175.235 146.542 174.4 146.925 173.014 146.978Z" fill="white"/>
<path d="M162.749 183.6L165.307 175.313L185.466 147.74L200.81 137.795L196.448 128.453L181.855 120.166L186.669 104.797L200.81 96.2085L211.943 81.8943L233.305 87.7706L237.819 103.14L233.305 120.166L225.332 134.781L226.536 139.904L244.287 141.11L279.34 147.74L288.216 120.166L292.278 103.14L294.835 92.7429L299.047 86.5652L303.109 91.5375L308.676 81.8943L311.985 84.9078L311.233 94.7017L303.109 107.66L299.95 121.522L294.835 160.999L290.472 166.875L246.093 162.506L244.287 181.039L241.279 212.982L188.173 219.913L171.174 226.091L162.749 219.009V183.6Z" fill="white"/>
<g style="mix-blend-mode:multiply">
<path d="M227.468 159.64C218.915 163.015 195.661 154.91 188.581 148.136C187.093 146.712 184.848 145.382 182.962 146.208C169.164 152.248 164.283 172.56 164.283 175.762C164.283 179.228 182.788 186.008 187 184.502C190.017 183.422 192.214 173.528 191.346 165.413C191.189 163.949 192.23 162.57 193.697 162.476L205.191 161.743C206.465 161.662 207.58 162.59 207.734 163.859L209.415 177.721C209.415 177.721 212.141 179.529 209.415 187.967C206.69 196.405 194.672 189.474 186.097 212.829C185.057 215.661 181.949 217.842 183.02 223.664C183.473 226.124 185.506 227.898 187.908 228.586C198.035 231.484 226.094 238.358 241.008 230.458C245.414 228.124 250.343 223.725 253.755 220.388C256.364 217.836 256.633 213.89 255.45 210.434C251.504 198.898 256.804 189.835 256.804 179.529C256.804 171.279 254.925 165.851 253.771 163.297C253.278 162.205 253.176 160.94 253.609 159.822C255.693 154.441 257.456 148.052 258.316 143.894C258.636 142.344 258.082 140.744 256.825 139.784C248.86 133.703 239.909 133.955 234.215 135.458C232.212 135.986 231.471 138.275 232.127 140.243C234.476 147.29 234.262 156.96 227.468 159.64Z" fill="#FF6B6F"/>
</g>
<path fill-rule="evenodd" clip-rule="evenodd" d="M154.985 119.069C157.555 118.258 160.322 119.779 161.167 122.466C161.794 124.458 161.389 126.298 161.112 127.265C160.792 128.382 160.315 129.408 159.907 130.187C159.485 130.993 159.051 131.697 158.73 132.19C158.567 132.441 158.427 132.647 158.324 132.796C158.272 132.87 158.229 132.931 158.197 132.977C158.18 132.999 158.167 133.018 158.156 133.033C158.15 133.041 158.146 133.047 158.142 133.053L158.136 133.06L158.133 133.065C158.133 133.066 158.132 133.066 154.2 129.937C153.161 134.875 153.16 134.875 153.159 134.875L153.153 134.873L153.143 134.87C153.136 134.869 153.127 134.866 153.118 134.864C153.098 134.859 153.074 134.853 153.046 134.845C152.989 134.83 152.914 134.81 152.823 134.784C152.642 134.734 152.395 134.661 152.102 134.568C151.526 134.384 150.721 134.102 149.86 133.717C149.028 133.345 147.971 132.801 146.986 132.043C146.078 131.344 144.679 130.043 144.035 127.995C143.19 125.308 144.588 122.473 147.158 121.662C148.789 121.147 150.501 121.573 151.749 122.64C152.13 120.99 153.308 119.598 154.985 119.069ZM154.2 129.937L153.161 134.875L154.901 135.311C155.721 135.517 156.57 135.208 157.071 134.522L158.132 133.066L154.2 129.937Z" fill="#00DA93"/>
<g style="mix-blend-mode:multiply">
<path fill-rule="evenodd" clip-rule="evenodd" d="M165.235 180.028C166.204 180.263 166.799 181.24 166.565 182.211C165.133 188.135 162.84 198.236 162.189 207.333C161.863 211.893 161.962 216.068 162.722 219.292C163.489 222.552 164.82 224.417 166.616 225.121C171.015 226.846 174.387 226.236 177.184 224.427C180.104 222.54 182.546 219.247 184.694 215.342C186.4 212.241 187.836 208.92 189.173 205.829C189.514 205.04 189.849 204.265 190.181 203.513C190.982 201.695 191.771 199.99 192.567 198.593C193.336 197.245 194.237 195.953 195.345 195.181C197.084 193.97 199.258 193.152 201.239 192.423C201.358 192.379 201.475 192.336 201.592 192.293C203.529 191.582 205.317 190.925 206.841 190.036C208.421 189.116 209.555 188.035 210.167 186.572C210.783 185.1 210.983 182.974 210.156 179.752C209.908 178.785 210.49 177.8 211.456 177.551C212.421 177.303 213.405 177.885 213.653 178.852C214.605 182.563 214.511 185.546 213.497 187.97C212.479 190.402 210.646 192.003 208.657 193.162C206.845 194.218 204.77 194.979 202.91 195.661C202.767 195.713 202.625 195.765 202.485 195.817C200.43 196.573 198.702 197.248 197.407 198.15C196.998 198.434 196.426 199.118 195.702 200.387C195.006 201.609 194.281 203.165 193.484 204.973C193.173 205.68 192.852 206.422 192.519 207.191C191.178 210.294 189.654 213.819 187.856 217.087C185.619 221.155 182.823 225.086 179.142 227.466C175.338 229.925 170.744 230.623 165.299 228.488C161.867 227.142 160.083 223.837 159.207 220.123C158.324 216.374 158.252 211.774 158.588 207.074C159.262 197.651 161.622 187.293 163.056 181.36C163.29 180.389 164.266 179.793 165.235 180.028Z" fill="#AF5333"/>
</g>
<g style="mix-blend-mode:multiply">
<path d="M205.699 161.633L193.185 162.698C191.785 162.817 190.784 164.107 191.014 165.496L192.817 176.354C193.277 179.126 195.589 181.212 198.39 181.381L205.82 181.831C207.208 181.914 208.378 180.807 208.372 179.414L208.31 164.025C208.304 162.617 207.1 161.514 205.699 161.633Z" fill="#8CE0BE"/>
</g>
<g style="mix-blend-mode:multiply">
<path fill-rule="evenodd" clip-rule="evenodd" d="M189.057 170.165C189.941 169.702 191.032 170.045 191.493 170.93C194.076 175.882 192.244 180.686 190.518 183.298C190.028 184.04 189.619 184.873 189.279 185.756C188.437 187.942 186.868 190.047 185.124 192.018C183.648 193.687 181.947 195.365 180.3 196.991C179.993 197.295 179.687 197.597 179.384 197.896C177.432 199.832 175.624 201.683 174.244 203.48C172.847 205.299 172.037 206.878 171.853 208.254C171.72 209.244 170.811 209.938 169.823 209.806C168.835 209.673 168.142 208.763 168.274 207.773C168.584 205.459 169.851 203.27 171.382 201.276C172.929 199.261 174.899 197.256 176.844 195.327C177.16 195.014 177.475 194.703 177.788 194.393C179.436 192.766 181.034 191.188 182.422 189.62C184.082 187.743 185.305 186.028 185.911 184.454C186.323 183.384 186.843 182.307 187.507 181.302C188.875 179.232 190.011 175.899 188.293 172.605C187.831 171.719 188.174 170.627 189.057 170.165Z" fill="#AF5333"/>
</g>
<g style="mix-blend-mode:multiply">
<path fill-rule="evenodd" clip-rule="evenodd" d="M302.323 110.371C303.319 110.418 304.087 111.266 304.04 112.263C303.985 113.413 303.472 116.992 301.927 123.069C301.015 126.656 300.301 134.41 299.765 142.28C299.415 147.43 299.15 152.466 298.949 156.274C298.844 158.266 298.757 159.922 298.685 161.083C298.298 167.281 294.115 169.593 292.27 169.901L292.217 169.91L292.165 169.915C283.344 170.86 275.307 171.001 268.895 170.558C265.69 170.336 262.866 169.967 260.539 169.469C258.25 168.98 256.301 168.338 254.949 167.497C254.102 166.97 253.842 165.856 254.368 165.007C254.894 164.159 256.007 163.898 256.854 164.425C257.675 164.936 259.139 165.473 261.293 165.933C263.409 166.385 266.056 166.737 269.144 166.95C275.297 167.375 283.093 167.245 291.703 166.328C291.709 166.326 291.717 166.324 291.726 166.322C291.76 166.312 291.806 166.298 291.863 166.277C291.978 166.235 292.124 166.171 292.291 166.079C292.625 165.896 293.022 165.615 293.408 165.208C294.159 164.418 294.942 163.081 295.081 160.857C295.149 159.769 295.234 158.153 295.338 156.191C295.54 152.354 295.812 147.189 296.163 142.034C296.691 134.27 297.418 126.15 298.428 122.177C299.958 116.159 300.397 112.866 300.434 112.091C300.481 111.094 301.327 110.323 302.323 110.371Z" fill="#AF5333"/>
</g>
<g style="mix-blend-mode:multiply">
<path fill-rule="evenodd" clip-rule="evenodd" d="M306.477 74.3406C307.234 73.6907 308.374 73.7785 309.023 74.5367C309.674 75.2972 310.671 76.5827 311.606 78.0321C312.522 79.4527 313.472 81.1723 313.907 82.7715C314.169 83.7349 313.602 84.7289 312.64 84.9916C311.679 85.2543 310.686 84.6864 310.424 83.7229C310.137 82.6702 309.432 81.3261 308.573 79.9943C307.733 78.6914 306.834 77.5359 306.282 76.8901C305.633 76.1319 305.72 74.9905 306.477 74.3406Z" fill="#AF5333"/>
</g>
<g style="mix-blend-mode:multiply">
<path fill-rule="evenodd" clip-rule="evenodd" d="M258.619 144.532C258.725 143.539 259.614 142.819 260.605 142.925C261.064 142.974 261.565 143.026 262.099 143.082C265.172 143.405 269.365 143.846 273.124 144.346C275.328 144.639 277.417 144.957 279.061 145.289C279.881 145.455 280.626 145.631 281.235 145.82C281.539 145.915 281.838 146.022 282.109 146.144C282.357 146.256 282.693 146.43 282.987 146.696C283.727 147.365 283.785 148.509 283.117 149.25C282.475 149.962 281.396 150.043 280.656 149.455C280.648 149.451 280.638 149.446 280.626 149.441C280.534 149.4 280.385 149.343 280.164 149.274C279.723 149.137 279.113 148.989 278.347 148.834C276.822 148.526 274.827 148.22 272.648 147.931C268.944 147.438 264.809 147.003 261.733 146.68C261.195 146.623 260.689 146.57 260.224 146.521C259.233 146.415 258.514 145.525 258.619 144.532ZM280.687 149.471C280.687 149.471 280.685 149.47 280.682 149.468C280.686 149.47 280.687 149.471 280.687 149.471Z" fill="#AF5333"/>
</g>
<g style="mix-blend-mode:multiply">
<path d="M308.696 79.6495C308.298 83.2142 304.217 88.644 300.658 88.2453C297.099 87.8466 294.741 83.4809 295.139 79.9162C295.537 76.3515 299.878 71.5167 303.437 71.9154C306.996 72.3141 309.094 76.0848 308.696 79.6495Z" fill="#FFCE00"/>
</g>
<g style="mix-blend-mode:multiply">
<path fill-rule="evenodd" clip-rule="evenodd" d="M298.325 83.8501C299.322 83.8501 300.13 84.6596 300.13 85.6582C300.13 87.6709 298.972 89.2095 298.278 89.866C296.395 92.0439 295.337 93.9423 294.727 95.6655C294.109 97.4109 293.918 99.0645 293.865 100.802C293.844 101.487 293.848 102.202 293.852 102.946C293.868 105.882 293.887 109.278 292.401 113.105C289.69 120.085 284.75 136.395 282.606 143.725C282.326 144.683 281.323 145.232 280.367 144.952C279.41 144.671 278.861 143.666 279.141 142.708C281.274 135.415 286.258 118.947 289.036 111.794C290.25 108.667 290.243 106.106 290.234 103.26C290.231 102.435 290.229 101.586 290.256 100.692C290.315 98.7492 290.534 96.6859 291.324 94.4566C292.114 92.2251 293.444 89.9151 295.622 87.4139L295.702 87.3223L295.793 87.2422C295.854 87.1891 296.058 86.9736 296.239 86.643C296.415 86.3221 296.52 85.9833 296.52 85.6582C296.52 84.6596 297.328 83.8501 298.325 83.8501Z" fill="#AF5333"/>
</g>
<g style="mix-blend-mode:multiply">
<path fill-rule="evenodd" clip-rule="evenodd" d="M305.449 77.5837C306.329 77.1138 307.422 77.4471 307.891 78.3282C308.304 79.1033 309.339 80.0975 310.605 81.1702C310.834 81.364 311.081 81.5696 311.325 81.7725C311.672 82.0614 312.012 82.3448 312.284 82.5811C312.529 82.7939 312.773 83.0154 312.982 83.23C313.16 83.4129 313.441 83.7184 313.63 84.0961C313.854 84.5444 314.032 85.189 314.161 85.8541C314.299 86.5651 314.409 87.4429 314.44 88.4256C314.502 90.3805 314.257 92.8439 313.223 95.2602C312.423 97.1299 310.722 99.825 309.016 102.332C307.282 104.88 305.441 107.379 304.271 108.908C303.664 109.7 302.531 109.85 301.74 109.242C300.949 108.635 300.799 107.5 301.406 106.707C302.542 105.223 304.342 102.779 306.033 100.295C307.752 97.7691 309.26 95.3412 309.905 93.8357C310.676 92.0332 310.882 90.127 310.831 88.541C310.806 87.7532 310.718 87.0678 310.617 86.5451C310.566 86.2837 310.514 86.0729 310.468 85.9175C310.451 85.8611 310.437 85.8173 310.426 85.7847C310.417 85.7755 310.407 85.7651 310.396 85.7537C310.292 85.6464 310.136 85.5018 309.917 85.312C309.658 85.0868 309.384 84.8587 309.075 84.6024C308.832 84.4002 308.567 84.1804 308.273 83.9307C307.094 82.9315 305.496 81.5149 304.706 80.0299C304.236 79.1488 304.569 78.0536 305.449 77.5837Z" fill="#AF5333"/>
</g>
<g style="mix-blend-mode:multiply">
<path fill-rule="evenodd" clip-rule="evenodd" d="M301.204 89.2133C302.115 88.8067 303.182 89.2164 303.588 90.1285C304.228 91.5665 304.798 94.8926 302.888 98.2236C302.392 99.0896 301.288 99.3885 300.424 98.8912C299.559 98.3939 299.261 97.2888 299.757 96.4228C300.992 94.269 300.55 92.1833 300.29 91.601C299.884 90.689 300.293 89.62 301.204 89.2133Z" fill="#AF5333"/>
</g>
<g style="mix-blend-mode:multiply">
<path d="M178.097 131.463C187.705 137.077 194.904 133.608 197.703 130.835C197.958 130.583 198.008 130.198 197.852 129.875C195.342 124.658 192.554 121.352 190.691 119.652C190.134 119.144 190.248 118.049 190.823 117.56C193.838 115 194.805 109.119 194.931 105.587C194.947 105.133 195.288 104.751 195.736 104.68C208.918 102.61 214.539 92.7265 216.032 86.9359C216.19 86.3229 216.894 86.0026 217.455 86.293C223.719 89.5316 229.883 89.0665 232.992 88.212C233.495 88.0738 234.037 88.3385 234.168 88.8443C235.776 95.0421 236.26 105.545 236.312 111.039C236.317 111.571 236.778 111.989 237.299 111.889C243.992 110.607 244.014 102.964 242.7 99.4306C242.527 98.9653 242.687 98.4239 243.095 98.142C247.584 95.0402 248.759 88.4807 247.449 82.1924C245.132 71.0711 235.498 68.9092 229.838 68.787C229.405 68.7776 229.037 68.4775 228.922 68.0597C227.694 63.5844 222.654 55.2172 210.468 55.6734C198.312 56.1286 190.985 63.9142 190.202 71.5023C190.136 72.1427 189.474 72.5981 188.848 72.4539C184.648 71.4868 175.68 72.0208 171.026 82.0417C166.007 92.8487 167.359 99.9952 174.72 105.917C175.343 106.418 175.13 107.559 174.451 107.982C168.491 111.7 168.911 126.097 178.097 131.463Z" fill="#F2A9C3"/>
</g>
<g style="mix-blend-mode:multiply">
<path fill-rule="evenodd" clip-rule="evenodd" d="M225.276 136.828C226.261 136.675 227.184 137.351 227.337 138.338C227.747 140.992 228.636 144.141 230.037 146.011C230.635 146.81 230.473 147.943 229.676 148.543C228.878 149.142 227.747 148.98 227.148 148.181C225.197 145.575 224.202 141.691 223.769 138.891C223.616 137.905 224.291 136.981 225.276 136.828Z" fill="#AF5333"/>
</g>
<g style="mix-blend-mode:multiply">
<path fill-rule="evenodd" clip-rule="evenodd" d="M232.329 89.4904C233.207 89.017 234.302 89.3459 234.775 90.2252C235.007 90.658 235.187 91.2106 235.331 91.7349C235.485 92.2926 235.635 92.9519 235.78 93.6707C236.069 95.1103 236.352 96.8672 236.609 98.6833C237.121 102.313 237.54 106.276 237.694 108.591C237.791 110.05 237.363 112.299 236.744 114.667C236.102 117.119 235.183 119.954 234.139 122.707C233.097 125.456 231.913 128.167 230.733 130.357C230.144 131.45 229.538 132.446 228.932 133.263C228.352 134.046 227.67 134.807 226.893 135.274C224.957 136.437 221.689 137.045 218.126 136.867C214.491 136.685 210.28 135.675 206.376 133.312C205.523 132.796 205.249 131.685 205.764 130.83C206.28 129.975 207.39 129.701 208.243 130.217C211.56 132.224 215.172 133.098 218.306 133.255C221.513 133.416 223.962 132.818 225.035 132.173C225.199 132.075 225.541 131.772 226.033 131.108C226.5 130.477 227.015 129.643 227.556 128.639C228.637 126.633 229.757 124.079 230.764 121.423C231.77 118.771 232.647 116.059 233.251 113.75C233.877 111.358 234.145 109.633 234.092 108.832C233.945 106.627 233.537 102.755 233.034 99.1894C232.782 97.4081 232.51 95.7278 232.24 94.3845C232.105 93.7119 231.974 93.1435 231.851 92.6988C231.719 92.2208 231.626 91.9965 231.596 91.9396C231.123 91.0604 231.451 89.9638 232.329 89.4904Z" fill="#AF5333"/>
</g>
<g style="mix-blend-mode:multiply">
<path fill-rule="evenodd" clip-rule="evenodd" d="M192.522 122.999C193.035 122.143 194.144 121.866 194.999 122.379C199.032 124.803 200.601 128.891 201.016 132.42C201.224 134.195 201.152 135.896 200.931 137.305C200.722 138.639 200.342 139.948 199.767 140.78C199.418 141.285 198.935 141.68 198.504 141.982C198.051 142.3 197.527 142.602 196.985 142.889C196.178 143.316 195.22 143.767 194.256 144.22C193.943 144.367 193.63 144.514 193.321 144.661C192.022 145.279 190.746 145.914 189.641 146.59C188.516 147.279 187.697 147.936 187.218 148.549C186.603 149.336 185.469 149.474 184.684 148.859C183.898 148.244 183.76 147.107 184.375 146.321C185.249 145.202 186.499 144.276 187.757 143.505C189.036 142.722 190.458 142.02 191.773 141.395C192.122 141.228 192.461 141.069 192.789 140.915C193.729 140.473 194.573 140.076 195.297 139.692C195.778 139.437 196.155 139.215 196.433 139.02C196.687 138.842 196.78 138.741 196.797 138.723C196.8 138.72 196.8 138.719 196.798 138.721C196.9 138.574 197.179 137.924 197.364 136.743C197.538 135.638 197.598 134.269 197.43 132.843C197.092 129.968 195.879 127.125 193.142 125.48C192.287 124.966 192.009 123.856 192.522 122.999Z" fill="#AF5333"/>
</g>
<g style="mix-blend-mode:multiply">
<path fill-rule="evenodd" clip-rule="evenodd" d="M215.112 88.4669C216.056 88.789 216.561 89.8163 216.239 90.7615C214.61 95.5523 208.436 104.831 196.293 105.773C196.086 108.94 195.057 114.047 191.816 117.74C191.158 118.49 190.017 118.564 189.268 117.905C188.519 117.246 188.446 116.103 189.104 115.353C191.914 112.15 192.702 107.247 192.725 104.644C192.737 103.336 193.778 102.266 195.082 102.22C205.945 101.836 211.443 93.6489 212.821 89.5954C213.143 88.6502 214.169 88.1449 215.112 88.4669Z" fill="#912547"/>
</g>
<g style="mix-blend-mode:multiply">
<path fill-rule="evenodd" clip-rule="evenodd" d="M217.998 84.3616C218.546 83.5271 219.665 83.2952 220.498 83.8436C221.58 84.5555 223.654 85.5716 226.171 86.1397C228.68 86.7061 231.503 86.7995 234.177 85.833C235.115 85.4941 236.15 85.9809 236.488 86.9202C236.826 87.8596 236.34 88.8958 235.402 89.2346C231.894 90.5024 228.334 90.3348 225.377 89.6674C222.428 89.0017 219.952 87.8111 218.516 86.8657C217.682 86.3173 217.451 85.1962 217.998 84.3616Z" fill="#912547"/>
</g>
<g style="mix-blend-mode:multiply">
<path fill-rule="evenodd" clip-rule="evenodd" d="M178.648 106.125C179.216 106.946 179.012 108.073 178.193 108.642C176.928 109.52 175.301 111.684 174.506 114.49C173.731 117.23 173.809 120.369 175.61 123.272C179.044 128.807 182.802 130.446 186.362 130.227C187.357 130.165 188.214 130.924 188.275 131.92C188.336 132.917 187.579 133.775 186.584 133.836C181.388 134.156 176.497 131.552 172.544 125.18C170.097 121.237 170.042 117.005 171.033 113.504C172.005 110.069 174.045 107.121 176.136 105.67C176.955 105.101 178.08 105.305 178.648 106.125Z" fill="#F2A9C3"/>
</g>
<g style="mix-blend-mode:multiply">
<path fill-rule="evenodd" clip-rule="evenodd" d="M201.864 72.6018C201.493 73.5287 200.442 73.979 199.516 73.6075C197.964 72.9846 195.856 72.6913 193.714 72.8566C191.567 73.0224 189.583 73.6337 188.2 74.6234C186.843 75.5937 185.751 77.2083 185.093 79.035C184.43 80.8734 184.29 82.6942 184.586 83.9588C184.814 84.931 184.212 85.9041 183.241 86.1323C182.271 86.3605 181.299 85.7574 181.071 84.7852C180.574 82.665 180.865 80.1135 181.697 77.807C182.532 75.4888 183.997 73.1858 186.101 71.6807C188.178 70.195 190.858 69.4502 193.437 69.2511C196.021 69.0515 198.701 69.3845 200.859 70.2508C201.785 70.6223 202.234 71.6749 201.864 72.6018Z" fill="#F2A9C3"/>
</g>
<g style="mix-blend-mode:multiply">
<path fill-rule="evenodd" clip-rule="evenodd" d="M188.183 102.068C188.379 101.088 189.33 100.454 190.308 100.65C195.873 101.766 200.842 101.06 206.227 97.6737C207.071 97.1427 208.185 97.3977 208.716 98.2434C209.246 99.0891 208.991 100.205 208.147 100.736C201.947 104.635 196.032 105.486 189.599 104.196C188.621 103.999 187.987 103.047 188.183 102.068Z" fill="#F2A9C3"/>
</g>
<g style="mix-blend-mode:multiply">
<path fill-rule="evenodd" clip-rule="evenodd" d="M235.227 76.6135C234.238 76.7397 233.334 76.039 233.208 75.0484C233.08 74.0407 232.603 72.792 231.848 71.6496C231.089 70.502 230.159 69.6265 229.255 69.1973C228.381 68.7823 227.208 68.6664 226.008 68.8621C224.797 69.0597 223.802 69.5349 223.265 70.0243C222.528 70.6965 221.386 70.6428 220.715 69.9044C220.044 69.1659 220.098 68.0224 220.835 67.3501C222.021 66.2691 223.726 65.5705 225.428 65.2929C227.142 65.0132 229.097 65.1206 230.801 65.9296C232.475 66.7243 233.861 68.1447 234.858 69.6532C235.859 71.1669 236.578 72.9344 236.789 74.5913C236.915 75.5819 236.216 76.4873 235.227 76.6135Z" fill="#F2A9C3"/>
</g>
<g style="mix-blend-mode:multiply">
<path fill-rule="evenodd" clip-rule="evenodd" d="M236.481 97.2527C235.488 97.1623 234.757 96.2829 234.847 95.2884C234.945 94.2097 234.773 93.4373 234.566 92.5085C234.52 92.3028 234.472 92.0893 234.426 91.8631C234.302 91.2655 234.183 90.5402 234.254 89.7412C234.328 88.9095 234.596 88.0916 235.114 87.2613C235.642 86.4145 236.756 86.1571 237.601 86.6863C238.447 87.2156 238.704 88.3311 238.175 89.1779C237.941 89.553 237.871 89.8275 237.851 90.0599C237.827 90.325 237.859 90.6357 237.961 91.1304C237.991 91.2733 238.027 91.4304 238.066 91.6011C238.283 92.551 238.596 93.9228 238.443 95.6157C238.352 96.6102 237.474 97.3431 236.481 97.2527Z" fill="#F2A9C3"/>
</g>
<g style="mix-blend-mode:multiply">
<path fill-rule="evenodd" clip-rule="evenodd" d="M206.144 135.826C206.605 136.037 207.081 136.242 207.565 136.436C209.337 137.144 211.464 137.792 213.477 137.792C214.973 137.792 216.185 136.577 216.185 135.08C216.185 133.582 214.973 132.367 213.477 132.367C212.495 132.367 211.13 132.02 209.572 131.398C208.065 130.796 206.601 130.028 205.49 129.393C203.892 128.481 202.328 129.163 201.559 129.831C200.79 130.498 199.977 131.841 200.45 133.454C201.139 135.806 200.533 137.687 199.178 139.346C197.737 141.109 195.473 142.551 193.163 143.556C191.616 144.228 190.642 145.613 190.37 147.072C190.093 148.565 190.534 150.322 192.021 151.472C201.161 158.541 213.649 164.077 230.014 160.125C231.468 159.774 232.362 158.309 232.011 156.853C231.661 155.396 230.198 154.501 228.744 154.852C215.064 158.156 204.559 153.973 196.44 148.014C198.876 146.824 201.471 145.105 203.37 142.781C204.935 140.865 206.027 138.52 206.144 135.826Z" fill="#FFD5BF"/>
</g>
<g style="mix-blend-mode:multiply">
<path fill-rule="evenodd" clip-rule="evenodd" d="M228.279 137.55C227.152 136.767 225.594 136.949 224.681 138.015C223.708 139.152 223.839 140.864 224.974 141.839C225.84 142.582 227.128 142.937 228.387 143.084C229.786 143.247 231.6 143.205 233.882 142.802C235.355 142.542 236.338 141.135 236.079 139.66C235.819 138.185 234.415 137.2 232.942 137.46C231.066 137.792 229.789 137.786 229.013 137.696C228.631 137.651 228.394 137.589 228.279 137.55ZM228.225 137.531C228.212 137.526 228.207 137.523 228.207 137.523C228.207 137.523 228.213 137.525 228.225 137.531Z" fill="#FFD5BF"/>
</g>
<g style="mix-blend-mode:multiply">
<path fill-rule="evenodd" clip-rule="evenodd" d="M294.545 157.846C296.032 158.002 297.112 159.336 296.956 160.826C296.554 164.688 293.097 166.395 290.129 167.15C286.965 167.954 282.902 168.102 278.742 167.94C270.355 167.613 260.66 165.975 254.797 164.866C253.327 164.588 252.361 163.17 252.638 161.698C252.916 160.226 254.332 159.258 255.802 159.536C261.622 160.637 270.988 162.209 278.952 162.52C282.966 162.676 286.402 162.501 288.797 161.892C291.388 161.233 291.552 160.438 291.57 160.262C291.725 158.772 293.057 157.691 294.545 157.846Z" fill="#FFD5BF"/>
</g>
<g style="mix-blend-mode:multiply">
<path fill-rule="evenodd" clip-rule="evenodd" d="M302.338 114.718C303.761 115.178 304.543 116.706 304.084 118.132C298.248 136.262 297.262 148.638 297.441 152.273C297.515 153.77 296.364 155.042 294.87 155.116C293.377 155.19 292.106 154.037 292.032 152.541C291.81 148.04 292.97 134.982 298.929 116.468C299.388 115.042 300.914 114.259 302.338 114.718Z" fill="#FFD5BF"/>
</g>
<g style="mix-blend-mode:multiply">
<path fill-rule="evenodd" clip-rule="evenodd" d="M210.587 179.59C212.049 179.905 212.979 181.348 212.664 182.812C212.07 185.577 211.074 187.639 209.446 189.06C207.855 190.449 205.994 190.913 204.52 191.223C204.235 191.283 203.953 191.34 203.671 191.396C201.039 191.924 198.498 192.433 195.552 195.441C193.895 197.133 192.28 199.754 190.597 202.983C189.638 204.822 188.767 206.631 187.877 208.481C187.149 209.991 186.409 211.529 185.597 213.132C183.905 216.475 182.043 219.795 179.898 222.256C177.763 224.706 174.936 226.763 171.333 226.534C166.316 226.215 162.017 222.84 160.197 217.169C158.411 211.602 159.013 203.973 162.995 194.59C163.58 193.212 165.17 192.569 166.546 193.155C167.922 193.741 168.564 195.333 167.979 196.712C164.288 205.411 164.108 211.628 165.353 215.509C166.565 219.285 169.111 220.958 171.676 221.121C172.811 221.193 174.141 220.614 175.818 218.689C177.486 216.776 179.094 213.984 180.767 210.679C181.446 209.338 182.172 207.835 182.912 206.302C183.873 204.311 184.859 202.27 185.796 200.473C187.512 197.18 189.432 193.944 191.686 191.642C195.83 187.412 199.826 186.624 202.603 186.077C202.883 186.022 203.15 185.969 203.404 185.915C204.788 185.624 205.428 185.372 205.887 184.971C206.309 184.603 206.911 183.802 207.37 181.67C207.685 180.206 209.125 179.274 210.587 179.59Z" fill="#FFD5BF"/>
</g>
<g style="mix-blend-mode:multiply">
<path fill-rule="evenodd" clip-rule="evenodd" d="M216.554 105.674C214.532 104.928 212.604 105.832 211.973 106.886C211.375 107.885 210.082 108.209 209.084 107.61C208.086 107.011 207.763 105.715 208.361 104.716C210.137 101.749 214.286 100.341 218.011 101.715C221.942 103.166 224.927 107.403 225.505 114.723C225.597 115.884 224.732 116.9 223.572 116.992C222.413 117.084 221.398 116.217 221.306 115.056C220.801 108.662 218.369 106.344 216.554 105.674Z" fill="#FFD5BF"/>
</g>
<g style="mix-blend-mode:multiply">
<path fill-rule="evenodd" clip-rule="evenodd" d="M213.299 106.592C212.066 107.068 211.207 107.99 210.977 108.68C210.662 109.628 209.64 110.14 208.694 109.824C207.748 109.508 207.237 108.484 207.552 107.537C208.207 105.568 210.041 103.975 211.998 103.218C214.014 102.439 216.613 102.383 218.696 104.173C219.064 104.489 219.382 104.946 219.511 105.517C219.891 107.193 219.054 108.604 217.759 109.154C216.656 109.623 214.834 109.478 214.084 107.788C213.876 107.321 213.883 106.812 214.061 106.373C213.813 106.418 213.558 106.491 213.299 106.592Z" fill="#AF5333"/>
</g>
<g style="mix-blend-mode:multiply">
<path fill-rule="evenodd" clip-rule="evenodd" d="M229.758 103.081C228.867 103.464 228.281 104.141 228.131 104.602C227.821 105.551 226.801 106.069 225.854 105.759C224.906 105.448 224.389 104.427 224.699 103.478C225.258 101.767 226.79 100.396 228.422 99.7208C230.103 99.025 232.32 98.901 234.16 100.347C234.786 100.839 235.301 101.759 235.049 102.821C234.71 104.25 233.513 105.072 232.32 105.109C231.736 105.127 231.042 104.957 230.487 104.438C230.083 104.06 229.846 103.583 229.758 103.081Z" fill="#AF5333"/>
</g>
<path fill-rule="evenodd" clip-rule="evenodd" d="M213.504 120.723C214.265 119.531 215.847 119.183 217.037 119.945L219.069 121.247L220.4 120.561C221.656 119.913 223.198 120.408 223.845 121.665C224.492 122.923 223.998 124.468 222.742 125.115L220.872 126.08C219.585 126.743 218.043 126.671 216.824 125.89L214.281 124.261C213.091 123.498 212.743 121.914 213.504 120.723Z" fill="#AF5333"/>
<g style="mix-blend-mode:multiply">
<path d="M196.026 166.227C196.026 165.417 195.414 165.215 194.394 165.215C192.763 166.025 193.171 167.442 194.394 167.847C195.618 168.251 196.026 167.037 196.026 166.227Z" fill="#00DA93"/>
</g>
<g style="mix-blend-mode:multiply">
<path fill-rule="evenodd" clip-rule="evenodd" d="M212.173 123.368C212.683 122.138 214.091 121.555 215.319 122.065L220.1 124.052C221.328 124.563 221.91 125.973 221.401 127.203C220.891 128.433 219.483 129.016 218.255 128.506L213.474 126.519C212.246 126.008 211.663 124.598 212.173 123.368Z" fill="#FFD5BF"/>
</g>
<g style="mix-blend-mode:multiply">
<path fill-rule="evenodd" clip-rule="evenodd" d="M224.932 217.697C225.121 216.211 226.476 215.16 227.96 215.349C230.645 215.69 232.627 215.367 234.164 214.764C235.716 214.155 236.976 213.197 238.13 212.037C238.994 211.168 239.705 210.292 240.463 209.359C240.774 208.976 241.093 208.583 241.433 208.178C242.477 206.934 243.826 205.438 245.61 204.631C246.973 204.015 248.577 204.621 249.192 205.987C249.808 207.352 249.202 208.958 247.839 209.575C247.29 209.823 246.628 210.417 245.579 211.667C245.348 211.943 245.095 212.255 244.823 212.59C244.014 213.586 243.039 214.786 241.967 215.865C240.47 217.371 238.599 218.85 236.14 219.814C233.668 220.785 230.76 221.173 227.277 220.73C225.794 220.541 224.744 219.183 224.932 217.697Z" fill="#F2A9C3"/>
</g>
<g style="mix-blend-mode:multiply">
<path fill-rule="evenodd" clip-rule="evenodd" d="M195.296 208.254C196.489 207.351 198.188 207.588 199.089 208.783C203.72 214.919 217.541 226.323 235.394 222.97C236.864 222.694 238.279 223.664 238.554 225.136C238.83 226.609 237.862 228.026 236.392 228.302C215.732 232.182 200.067 219.075 194.769 212.053C193.867 210.858 194.103 209.157 195.296 208.254Z" fill="#F2A9C3"/>
</g>
<g style="mix-blend-mode:multiply">
<path fill-rule="evenodd" clip-rule="evenodd" d="M250.942 152.293C252.418 152.047 253.813 153.045 254.059 154.523L255.112 160.851C255.358 162.329 254.361 163.726 252.886 163.972C251.411 164.219 250.016 163.22 249.77 161.743L248.717 155.415C248.471 153.937 249.467 152.54 250.942 152.293Z" fill="#F2A9C3"/>
</g>
<g style="mix-blend-mode:multiply">
<path fill-rule="evenodd" clip-rule="evenodd" d="M187.904 173.117C189.362 172.785 190.813 173.7 191.145 175.161C191.559 176.985 191.302 178.82 190.944 180.237C189.966 184.111 186.335 186.304 182.672 186.06C178.104 185.756 170.524 184.173 165.048 177.481C164.099 176.323 164.269 174.614 165.425 173.665C166.582 172.715 168.288 172.884 169.236 174.043C173.353 179.073 179.157 180.39 183.031 180.648C184.41 180.739 185.433 179.94 185.694 178.907C185.952 177.885 186.009 177.004 185.864 176.363C185.532 174.903 186.446 173.449 187.904 173.117Z" fill="#F2A9C3"/>
</g>
<g style="mix-blend-mode:multiply">
<path fill-rule="evenodd" clip-rule="evenodd" d="M159.902 134.552C160.193 133.954 160.913 133.705 161.511 133.996C162.899 134.672 163.866 135.468 164.51 136.397C165.156 137.329 165.412 138.302 165.529 139.211C165.598 139.749 165.624 140.37 165.648 140.925C165.66 141.216 165.672 141.488 165.688 141.72C165.743 142.488 165.854 143.161 166.139 143.796C166.579 144.775 167.535 145.597 168.833 146.173C168.887 145.703 168.986 145.247 169.128 144.811C169.674 143.127 170.872 141.757 172.391 141.252C174.013 140.712 175.745 141.247 176.964 142.896C177.581 143.732 177.977 144.578 178.065 145.421C178.157 146.303 177.901 147.095 177.377 147.724C176.408 148.888 174.69 149.324 173.101 149.385C172.662 149.402 172.208 149.392 171.747 149.354C172.507 151.037 174.162 152.904 177.306 154.62C178.194 155.104 179.317 155.392 180.751 155.758C180.944 155.808 181.144 155.859 181.349 155.912C183 156.339 184.904 156.883 186.749 157.963C187.322 158.299 187.516 159.038 187.18 159.612C186.845 160.187 186.108 160.381 185.534 160.045C183.996 159.144 182.369 158.666 180.747 158.246C180.554 158.196 180.359 158.147 180.163 158.097C178.78 157.746 177.328 157.378 176.154 156.737C171.851 154.388 169.678 151.512 169.014 148.815C168.637 148.695 168.267 148.557 167.907 148.399C166.266 147.68 164.717 146.506 163.944 144.785C163.49 143.775 163.35 142.778 163.287 141.891C163.259 141.496 163.246 141.159 163.234 140.846C163.216 140.384 163.2 139.977 163.141 139.519C163.054 138.842 162.886 138.282 162.533 137.772C162.178 137.26 161.572 136.707 160.458 136.164C159.86 135.873 159.611 135.151 159.902 134.552ZM171.204 146.863C171.822 146.96 172.435 146.998 173.009 146.976C174.395 146.923 175.23 146.539 175.529 146.18C175.639 146.048 175.695 145.903 175.671 145.672C175.643 145.402 175.493 144.959 175.029 144.331C174.37 143.439 173.693 143.359 173.15 143.539C172.503 143.755 171.779 144.44 171.417 145.556C171.293 145.938 171.214 146.379 171.204 146.863Z" fill="#8CE0BE"/>
</g>
<g style="mix-blend-mode:multiply">
<path d="M301.616 84.8305C301.333 84.8081 301.121 84.5601 301.143 84.2766L301.883 74.8707C301.905 74.5871 302.152 74.3753 302.436 74.3976C302.719 74.42 302.93 74.668 302.908 74.9516L302.169 84.3574C302.146 84.641 301.899 84.8528 301.616 84.8305ZM304.321 77.8021C303.999 77.7768 303.769 77.4982 303.62 77.2116C303.542 77.0631 303.432 76.9321 303.289 76.8187C302.992 76.5792 302.604 76.4407 302.126 76.4031C301.785 76.3761 301.485 76.4071 301.227 76.4961C300.969 76.5824 300.763 76.7139 300.61 76.8904C300.46 77.0645 300.376 77.2697 300.357 77.5061C300.342 77.7044 300.374 77.8792 300.455 78.0304C300.539 78.1819 300.653 78.3126 300.797 78.4223C300.944 78.5296 301.103 78.6228 301.274 78.7019C301.446 78.7783 301.611 78.8433 301.771 78.8969L302.568 79.1729C302.829 79.2591 303.094 79.3689 303.365 79.5023C303.636 79.6357 303.883 79.8029 304.108 80.0037C304.332 80.2046 304.507 80.4452 304.632 80.7258C304.76 81.0065 304.81 81.3343 304.78 81.7092C304.743 82.182 304.588 82.5921 304.315 82.9397C304.045 83.2874 303.671 83.5491 303.193 83.7246C302.718 83.9004 302.155 83.9626 301.504 83.9113C300.88 83.8621 300.348 83.7204 299.908 83.4861C299.468 83.2519 299.133 82.9426 298.904 82.5582C298.782 82.3528 298.695 82.1307 298.641 81.8922C298.561 81.5336 298.886 81.2446 299.252 81.2735C299.585 81.2997 299.819 81.5908 299.957 81.8946C299.989 81.9659 300.028 82.0334 300.074 82.0969C300.232 82.3089 300.442 82.4744 300.702 82.5934C300.966 82.7098 301.26 82.7808 301.582 82.8063C301.938 82.8343 302.258 82.8035 302.544 82.7139C302.832 82.6218 303.064 82.4816 303.24 82.2931C303.416 82.102 303.515 81.8706 303.536 81.5989C303.555 81.3516 303.501 81.1437 303.372 80.975C303.246 80.8065 303.068 80.6612 302.837 80.5392C302.609 80.4173 302.349 80.3052 302.057 80.2029L301.094 79.8563C300.441 79.6217 299.933 79.3124 299.57 78.9284C299.21 78.5446 299.052 78.062 299.098 77.4806C299.136 76.9997 299.299 76.5902 299.588 76.2521C299.876 75.914 300.251 75.6634 300.711 75.5001C301.172 75.3341 301.682 75.2731 302.24 75.3172C302.805 75.3617 303.295 75.5001 303.71 75.7324C304.129 75.965 304.449 76.265 304.671 76.6324C304.782 76.8136 304.862 77.0053 304.912 77.2074C304.997 77.5538 304.676 77.8301 304.321 77.8021Z" fill="#FA7203"/>
</g>
<path d="M301.263 68.6846C300.815 68.5581 300.815 67.9224 301.263 67.7959L302.588 67.4214C303.947 67.0377 305.008 65.9745 305.391 64.6141L305.765 63.2865C305.891 62.8381 306.526 62.8381 306.652 63.2865L307.026 64.6141C307.409 65.9745 308.471 67.0377 309.829 67.4214L311.155 67.7959C311.602 67.9224 311.602 68.5581 311.155 68.6846L309.829 69.059C308.471 69.4427 307.409 70.5059 307.026 71.8664L306.652 73.1939C306.526 73.6424 305.891 73.6424 305.765 73.1939L305.391 71.8664C305.008 70.5059 303.947 69.4427 302.588 69.059L301.263 68.6846Z" fill="#F0E8C2"/>
<path d="M293.284 71.7679C292.968 71.6785 292.968 71.2292 293.284 71.1398L294.221 70.8751C295.181 70.6039 295.931 69.8525 296.202 68.891L296.466 67.9526C296.556 67.6357 297.004 67.6357 297.093 67.9526L297.358 68.891C297.628 69.8525 298.379 70.6039 299.339 70.8751L300.276 71.1398C300.592 71.2292 300.592 71.6785 300.276 71.7679L299.339 72.0326C298.379 72.3038 297.628 73.0552 297.358 74.0167L297.093 74.9551C297.004 75.272 296.556 75.272 296.466 74.9551L296.202 74.0168C295.931 73.0552 295.181 72.3038 294.221 72.0326L293.284 71.7679Z" fill="#F0E8C2"/>
<path d="M297.141 64.2255C296.871 64.1492 296.871 63.7654 297.141 63.689L297.941 63.4629C298.761 63.2313 299.402 62.5894 299.633 61.7681L299.859 60.9666C299.935 60.6958 300.319 60.6958 300.395 60.9666L300.621 61.7681C300.852 62.5894 301.493 63.2313 302.313 63.4629L303.113 63.689C303.383 63.7654 303.383 64.1492 303.113 64.2255L302.313 64.4516C301.493 64.6833 300.852 65.3251 300.621 66.1465L300.395 66.948C300.319 67.2187 299.935 67.2187 299.859 66.948L299.633 66.1465C299.402 65.3252 298.761 64.6833 297.941 64.4516L297.141 64.2255Z" fill="#F0E8C2"/>
<g style="mix-blend-mode:multiply">
<path d="M19.3194 154.653C23.2253 160.644 27.0717 166.665 30.9775 172.656C32.365 174.797 35.7754 176.206 38.1782 176.443C40.7749 176.693 43.9897 175.803 45.9602 174.011C50.6122 169.765 50.5408 164.03 47.2984 159.05C43.3926 153.059 39.5461 147.038 35.6402 141.047C34.2527 138.906 30.8424 137.497 28.4397 137.26C25.843 137.01 22.6282 137.9 20.6578 139.692C16.0058 143.938 16.0771 149.673 19.3194 154.653Z" fill="#FFA86D"/>
</g>
<g style="mix-blend-mode:multiply">
<path d="M60.737 41.2475C58.7525 43.2464 61.5151 40.5536 61.9041 40.2066C62.5964 39.635 63.2228 39.0535 63.9432 38.5198C65.5833 37.246 67.2137 36.0384 68.9282 34.9445C73.5983 31.8961 74.5917 24.3454 71.1492 20.0809C67.3322 15.3888 61.3104 14.6212 56.3089 17.8564C51.7903 20.7925 47.8243 24.318 44.0167 28.1373C42.2695 29.9016 41.5666 33.4771 41.8246 35.8122C42.1091 38.4213 43.6452 41.4546 45.804 43.0277C50.948 46.7367 56.5025 45.4419 60.737 41.2475Z" fill="#FFCE00"/>
</g>
<g style="mix-blend-mode:multiply">
<path d="M390.074 48.7687C387.339 42.5341 383.661 37.0079 379.417 31.7179C375.927 27.3725 368.004 27.7976 364.42 31.7179C360.176 36.3466 360.695 42.109 364.42 46.7377C364.468 46.785 364.468 46.8322 364.515 46.8794V46.9266C364.892 47.4934 365.316 48.0602 365.741 48.627C366.543 49.7606 367.25 50.9413 368.004 52.1221C369.419 54.531 370.645 56.9871 371.777 59.5377C373.994 64.6388 381.869 66.1973 386.302 63.3634C391.536 59.9155 392.432 54.2477 390.074 48.7687Z" fill="#BCFFDA"/>
</g>
<g style="mix-blend-mode:multiply">
<path d="M63.9722 42.2981C63.5477 40.9756 62.7932 39.8419 61.8028 38.8973C59.775 37.0552 57.1342 35.6383 54.3047 35.78C53.3616 35.9217 52.4184 36.0162 51.4752 36.1579C49.6832 36.6775 48.1269 37.5748 46.8065 38.8973C45.5804 39.9364 44.3072 41.0228 43.0811 42.0619C42.0436 43.0066 41.3362 44.1401 40.9118 45.4626C40.2515 46.7379 39.9215 48.1076 40.0158 49.5718C39.9686 51.036 40.2515 52.4057 40.9118 53.681C41.3362 55.0035 42.0908 56.137 43.0811 57.0817C45.1089 58.9237 47.7497 60.3407 50.5792 60.199C51.5223 60.0573 52.4655 59.9629 53.4087 59.8212C55.2007 59.3016 56.757 58.4042 58.0774 57.0817C59.3035 56.0426 60.5767 54.9562 61.8028 53.9171C62.8403 52.9725 63.5949 51.8389 63.9722 50.5164C64.6324 49.2412 64.9624 47.8715 64.8681 46.4073C64.9153 44.9431 64.6324 43.5734 63.9722 42.2981Z" fill="#FF8FA9"/>
</g>
<g style="mix-blend-mode:multiply">
<path d="M347.915 132.363C350.619 132.791 353.603 132.527 355.893 130.855C358.3 129.107 359.534 126.942 360.46 124.133C362.256 118.776 362.723 112.767 361.814 107.153C360.942 101.683 356.812 96.4879 350.66 97.0797C345.45 97.5614 339.643 102.387 340.603 108.251C340.79 109.314 340.912 110.363 340.956 111.463C341.003 112.053 341.011 112.669 340.994 113.245C341.006 113.35 340.977 113.651 340.988 113.927C340.973 114.162 340.958 114.398 340.905 114.489C340.848 115.091 340.725 115.68 340.603 116.268C340.358 117.445 340.048 118.609 339.672 119.759C338.894 122.189 339.859 125.734 341.177 127.749C342.624 129.962 345.315 131.922 347.915 132.363Z" fill="#FF8FA9"/>
</g>
<g style="mix-blend-mode:multiply">
<path d="M380.23 162.557C378.957 160.337 376.411 158.259 373.911 157.692C368.064 156.369 362.735 159.487 360.848 165.107L358.962 170.728C358.113 173.278 358.726 176.679 360.047 178.899C361.32 181.119 363.867 183.197 366.366 183.764C372.214 185.087 377.542 181.969 379.429 176.349L381.315 170.728C382.117 168.225 381.551 164.824 380.23 162.557Z" fill="#4DE1BE"/>
</g>
<g style="mix-blend-mode:multiply">
<path d="M365.409 45.9982C368.007 46.1307 371.163 45.1213 373.06 43.2784C374.995 41.3372 376.494 38.7718 376.539 35.9315C376.485 35.0259 376.395 34.1518 376.31 33.2111C375.903 31.3511 375.087 29.6708 373.792 28.2336L370.485 23.6507C368.989 21.5679 365.583 20.2571 363.15 20.1665C360.552 20.034 357.396 21.0435 355.499 22.8863C353.564 24.8275 352.065 27.3929 352.02 30.2332C352.074 31.1388 352.164 32.0129 352.249 32.9536C352.656 34.8136 353.472 36.4939 354.768 37.9311L358.074 42.514C359.571 44.5968 362.976 45.9075 365.409 45.9982Z" fill="#FFA86D"/>
</g>
</svg>
