<svg width="110" height="144" viewBox="0 0 110 144" fill="none" xmlns="http://www.w3.org/2000/svg">
<path d="M79.9372 32.3185C71.9268 32.7889 63.9123 33.4149 55.92 34.2287C51.3728 34.6917 46.8485 35.3172 42.368 35.9368L42.219 35.9574C37.6772 36.5853 33.1797 37.2053 28.6734 37.6575C21.9805 38.3291 14.6309 39.101 7.95034 41.5851C4.41822 42.8985 2.91006 45.6368 2.37075 48.4867C1.91853 50.8764 2.10974 53.548 2.26395 55.7027C2.28267 55.9643 2.30085 56.2183 2.31726 56.4632C2.51436 59.4042 2.80619 62.3328 3.09831 65.2258L3.1365 65.6039C3.4168 68.3783 3.69372 71.1193 3.8928 73.8622C4.37684 80.5315 4.93815 85.3124 5.5343 90.3899C5.94955 93.9266 6.3817 97.6073 6.81641 102.171C6.9409 103.477 7.02459 104.829 7.11213 106.242L7.11215 106.242C7.1319 106.561 7.15184 106.883 7.17249 107.208C7.28338 108.955 7.41362 110.777 7.64495 112.587C8.10594 116.195 8.9856 119.925 11.0619 123.189C12.8548 126.007 15.5201 127.323 18.2286 127.893C20.8714 128.45 23.7055 128.33 26.0575 128.192C34.0679 127.721 42.0825 127.095 50.0747 126.282C54.6219 125.819 59.1461 125.193 63.6267 124.574L63.7757 124.553C68.3175 123.925 72.815 123.305 77.3214 122.853C84.0143 122.181 91.3639 121.409 98.0444 118.925C101.577 117.612 103.085 114.873 103.624 112.024C104.076 109.634 103.885 106.962 103.731 104.808C103.712 104.546 103.694 104.292 103.677 104.047C103.48 101.106 103.189 98.1775 102.896 95.2844L102.858 94.9065L102.858 94.9058C102.578 92.1315 102.301 89.3907 102.102 86.6481C101.617 79.9694 101.057 75.1992 100.461 70.1285L100.461 70.1279C100.046 66.5938 99.6141 62.9137 99.1783 58.3397C99.0539 57.0331 98.9702 55.6821 98.8827 54.269L98.8826 54.2684C98.8629 53.9495 98.8429 53.6274 98.8223 53.3019C98.7114 51.5549 98.5811 49.7336 98.3498 47.9231C97.8888 44.3152 97.0091 40.5849 94.9328 37.3215C93.14 34.5037 90.4746 33.1877 87.7661 32.617C85.1233 32.0601 82.2893 32.1804 79.9372 32.3185Z" fill="#6DDFA6"/>
<g style="mix-blend-mode:multiply">
<path fill-rule="evenodd" clip-rule="evenodd" d="M59.1127 11.9326C55.0126 11.9909 50.4985 12.3835 47.2849 12.6767C42.7901 13.0868 38.3981 13.7013 33.8907 14.4628C33.8342 14.4724 33.778 14.4819 33.7219 14.4913C30.8775 14.9717 28.6394 15.3497 26.4874 16.1603C26.1608 16.2833 25.8017 16.4485 25.2942 16.6946C25.2244 16.7284 25.1499 16.7647 25.0713 16.803C24.9236 16.875 24.7615 16.954 24.5899 17.0364C24.5321 17.8393 24.5806 18.7734 24.6543 19.6163C24.8731 22.1166 25.0722 25.0901 25.2772 28.1517C25.6218 33.2988 25.8398 37.0564 26.3392 40.8721C26.7225 43.8006 24.832 46.4783 22.1166 46.8529C19.4012 47.2274 16.8893 45.157 16.506 42.2284C15.9683 38.1201 15.6875 33.4932 15.3189 28.0462C15.1223 25.1414 14.9414 22.4694 14.7675 20.4813C14.6765 19.4417 14.5602 17.7402 14.6962 15.9743C14.8155 14.4247 15.1934 11.7272 16.9049 9.60864C17.5971 8.75176 18.3619 8.27119 18.8256 8.01786C19.2165 7.80433 19.6484 7.62537 19.7311 7.5911C19.7378 7.5883 19.7422 7.58647 19.7441 7.58566C20.0767 7.44291 20.3948 7.28814 20.8261 7.07834C20.9183 7.03345 21.0158 6.98604 21.1197 6.93569C21.6549 6.67624 22.3434 6.34819 23.0994 6.06339C26.1167 4.92686 29.1588 4.4156 31.7644 3.9777C31.9201 3.95153 32.0742 3.92563 32.2267 3.89987C36.9012 3.11016 41.5332 2.45974 46.3185 2.02315C49.5161 1.73142 54.355 1.30577 58.8523 1.24185C61.0956 1.20997 63.3741 1.26541 65.3869 1.50002C67.1862 1.70973 69.555 2.13416 71.4193 3.34417C75.3858 5.91862 76.6777 9.77591 77.3469 12.8223C78.7608 19.2588 78.882 25.9905 78.9892 31.9475C79.0089 33.0432 79.0282 34.1127 79.0549 35.1493C79.1311 38.1015 76.9706 40.5299 74.2293 40.5734C71.4881 40.6169 69.2042 38.259 69.128 35.3069C69.0968 34.0949 69.0738 32.9077 69.0512 31.7423C68.9355 25.771 68.8308 20.3735 67.6843 15.1542C67.4572 14.1203 67.2522 13.5607 67.0617 13.2098C66.9171 12.9434 66.7187 12.6584 66.3818 12.4867C66.2645 12.427 66.1914 12.4127 66.0674 12.3722C65.4543 12.1718 65.6038 12.2644 64.4454 12.1294C62.9994 11.9609 61.1682 11.9034 59.1127 11.9326Z" fill="#FFA86D"/>
<path fill-rule="evenodd" clip-rule="evenodd" d="M46.2064 0.794644C49.4019 0.503099 54.2843 0.0730459 58.8347 0.0083702C61.1033 -0.0238731 63.4415 0.0313098 65.5297 0.274704C67.3557 0.48754 69.9715 0.933842 72.0909 2.30941C76.4707 5.15208 77.8602 9.40944 78.5518 12.5576C79.992 19.114 80.115 25.9472 80.2216 31.8726L80.2226 31.9253C80.2423 33.0219 80.2615 34.0865 80.2881 35.1175C80.3796 38.6663 77.7621 41.7511 74.2489 41.8068C70.7478 41.8624 67.9862 38.8805 67.8948 35.3387C67.8635 34.1221 67.8404 32.931 67.8178 31.7662C67.7016 25.7699 67.5952 20.498 66.4794 15.4189C66.262 14.4291 66.087 13.9999 65.9775 13.7982C65.8934 13.6433 65.8456 13.6013 65.8285 13.5898C65.8266 13.5892 65.8244 13.5885 65.822 13.5878C65.8152 13.5857 65.8059 13.5828 65.7924 13.5787L65.7904 13.5781C65.7649 13.5703 65.727 13.5588 65.6841 13.5447C65.434 13.463 65.3984 13.4596 65.3475 13.4547C65.3437 13.4543 65.3398 13.4539 65.3358 13.4535C65.3165 13.4515 65.2808 13.4487 65.2305 13.4447C65.0627 13.4312 64.732 13.4048 64.3025 13.3547C62.9321 13.195 61.1605 13.1372 59.1302 13.1661C55.0833 13.2236 50.6128 13.6118 47.397 13.9052C42.9411 14.3118 38.5813 14.9215 34.0962 15.6792L33.9273 15.7077C31.0563 16.1926 28.9419 16.5539 26.9222 17.3147C26.6526 17.4163 26.3371 17.5599 25.8322 17.8046C25.8209 17.8101 25.8095 17.8157 25.7979 17.8213C25.7984 18.3588 25.8336 18.9415 25.8832 19.5088C26.1031 22.0217 26.3028 25.0053 26.5074 28.0599L26.508 28.0693C26.5463 28.641 26.5829 29.1948 26.6186 29.7328C26.905 34.0576 27.1238 37.3617 27.5623 40.712C28.0223 44.2261 25.7555 47.5962 22.2851 48.0749C18.8063 48.5547 15.7433 45.9074 15.2828 42.3885C14.7942 38.6559 14.5159 34.5046 14.1982 29.7668C14.1621 29.2287 14.1255 28.683 14.0881 28.1295C13.8911 25.2199 13.7112 22.562 13.5385 20.5888C13.4459 19.5294 13.3223 17.7477 13.4662 15.8795C13.5893 14.2805 13.9861 11.2586 15.9453 8.83342C16.7757 7.80551 17.6912 7.23189 18.2342 6.93525C18.6835 6.68984 19.1635 6.49092 19.2559 6.45265L19.2587 6.45148L19.2627 6.44985C19.5616 6.32139 19.8515 6.18061 20.2864 5.96904C20.3785 5.92419 20.4768 5.87641 20.5816 5.82561C21.1208 5.56425 21.8522 5.21498 22.6646 4.90897C25.7942 3.73011 28.9345 3.20236 31.5209 2.76772L31.5599 2.76115C31.7157 2.73497 31.8693 2.70916 32.0212 2.6835C36.718 1.89001 41.3821 1.23478 46.2064 0.794644ZM19.2587 6.45148C19.2587 6.45148 19.2587 6.45148 19.2587 6.45148V6.45148ZM19.2576 6.45204L19.2587 6.45148C19.2583 6.45165 19.258 6.45187 19.2576 6.45204ZM19.2576 6.45204C19.2576 6.45205 19.2576 6.45203 19.2576 6.45204V6.45204ZM25.7982 17.7344C25.7982 17.7344 25.7982 17.7344 25.7982 17.7344V17.7344ZM58.8698 2.47533C54.4256 2.53849 49.6302 2.95973 46.4306 3.25165C41.6842 3.68468 37.0843 4.33029 32.4322 5.11623C32.2791 5.1421 32.1244 5.16809 31.9688 5.19424C29.3514 5.63413 26.4234 6.12953 23.5343 7.21781C22.8345 7.48139 22.189 7.78822 21.6577 8.04575C21.5548 8.09566 21.4581 8.14269 21.3657 8.18762L21.3486 8.19596C20.9313 8.39898 20.5902 8.56493 20.2306 8.71926C20.2195 8.72402 20.2045 8.73022 20.2033 8.73071M58.8698 2.47533C61.0878 2.4438 63.3067 2.4995 65.2441 2.72532L58.8698 2.47533ZM65.2441 2.72532C67.0166 2.93192 69.1385 3.33447 70.7477 4.37892L65.2441 2.72532ZM20.2033 8.73071C20.1228 8.76406 19.7447 8.92143 19.417 9.10046C19.0325 9.31048 18.4185 9.69801 17.8644 10.3839C16.4007 12.1957 16.0416 14.569 15.9261 16.069C15.798 17.7327 15.9072 19.3541 15.9964 20.3737C16.1714 22.3739 16.3528 25.0554 16.5488 27.9507L16.5496 27.9629C16.587 28.5148 16.6234 29.0577 16.6593 29.592C16.9784 34.3493 17.2514 38.4182 17.7291 42.0683C18.0351 44.4065 19.996 45.9001 21.948 45.6308C23.9083 45.3605 25.4226 43.3752 25.116 41.0322C24.6666 37.5985 24.4423 34.2105 24.1571 29.9012C24.1213 29.3606 24.0846 28.8056 24.0463 28.2342C23.841 25.1688 23.6428 22.209 23.4254 19.7238C23.35 18.862 23.2945 17.85 23.3595 16.9478L23.4109 16.2339L24.0561 15.9243C24.2239 15.8438 24.3826 15.7664 24.5307 15.6942C24.609 15.656 24.6848 15.619 24.7561 15.5845C25.2663 15.3372 25.669 15.1503 26.0525 15.0059C28.3166 14.153 30.6567 13.7579 33.4416 13.2876L33.6852 13.2465C38.215 12.4812 42.6391 11.8619 47.1728 11.4482C50.3842 11.1552 54.9418 10.7581 59.0952 10.6991C61.1757 10.6695 63.0667 10.7268 64.5882 10.9041C64.9767 10.9494 65.1612 10.9637 65.3201 10.976C65.4067 10.9827 65.4857 10.9888 65.586 10.999C65.8955 11.0306 66.1062 11.087 66.4506 11.1996C66.4685 11.2055 66.4855 11.2107 66.5122 11.2188C66.5354 11.2259 66.5748 11.2379 66.6161 11.2516C66.7122 11.2835 66.8186 11.3248 66.9419 11.3876C67.6098 11.7279 67.9581 12.2753 68.146 12.6214C68.4174 13.1215 68.6524 13.8114 68.8892 14.8895C70.0619 20.228 70.1685 25.7288 70.2832 31.6486L70.2845 31.7184C70.3071 32.8843 70.3301 34.0677 70.3612 35.2751C70.4222 37.6375 72.2284 39.3714 74.2097 39.3399C76.179 39.3087 77.8825 37.5366 77.8217 35.1811C77.7948 34.1396 77.7755 33.066 77.7558 31.972L77.7558 31.9697C77.6482 25.9933 77.5253 19.3842 76.142 13.0869C75.4952 10.1424 74.3009 6.68515 70.7477 4.37892" fill="#FFA86D"/>
</g>
<path d="M40.8181 76.8884C39.7723 74.0545 41.0337 69.6602 41.3741 68.7601C41.7145 67.86 42.2615 66.6162 43.4031 65.3781C44.5447 64.1399 45.8976 62.89 47.5452 62.388C50.8301 61.3872 54.8063 62.0212 57.9121 63.3351C60.4033 64.389 62.9008 66.5253 63.8203 69.1272C64.6277 71.4122 64.3068 74.0231 63.3557 76.2105C61.9932 79.3439 59.5116 81.4036 56.3889 82.6488C54.7009 83.3219 53.0514 83.3793 51.2534 83.3316C49.566 83.2867 48.0083 83.1697 46.4654 82.4366C44.105 81.3151 41.7484 79.4094 40.8181 76.8884Z" fill="white"/>
<path d="M47.1951 78.9849L51.5508 77.3033L55.9065 75.6217C56.8241 76.1253 57.312 77.1485 57.8355 78.054C60.4052 82.4985 65.8625 94.7658 65.5979 96.2607C65.3108 97.8821 44.0757 100.549 42.6637 98.5425C41.6188 97.0573 46.7434 80.5428 47.1951 78.9849Z" fill="white"/>
<g style="mix-blend-mode:multiply">
<path fill-rule="evenodd" clip-rule="evenodd" d="M22.8961 3.21361C23.8441 4.48973 23.5781 6.29272 22.302 7.2407C21.1998 8.05954 19.8765 8.35395 19.252 8.4929C19.1716 8.51078 19.1028 8.52609 19.0475 8.53961C17.9943 8.79726 17.2681 9.26111 16.7073 10.0033C15.9323 11.0289 15.6737 11.9316 15.7603 13.3512C16.0338 17.8327 16.186 22.2881 16.2967 26.7433C16.3362 28.3325 15.0799 29.6528 13.4907 29.6923C11.9015 29.7318 10.5812 28.4755 10.5417 26.8863C10.4318 22.4631 10.2817 18.0849 10.0142 13.7019C9.85269 11.0554 10.4287 8.76345 12.1143 6.53271C13.5754 4.599 15.5128 3.47773 17.6796 2.94769C17.7919 2.92021 17.9019 2.89432 17.9985 2.87159L18.0034 2.87042C18.1018 2.84727 18.1864 2.82737 18.269 2.80725C18.4371 2.7663 18.5581 2.73372 18.6569 2.70252C18.8043 2.65601 18.8594 2.62528 18.8702 2.61863C20.1463 1.67166 21.9484 1.93788 22.8961 3.21361ZM18.8723 2.61727C18.8723 2.61727 18.8717 2.6177 18.8704 2.61853C18.8716 2.61768 18.8722 2.61726 18.8723 2.61727Z" fill="#FFEDA5"/>
</g>
<g style="mix-blend-mode:multiply">
<path fill-rule="evenodd" clip-rule="evenodd" d="M53.644 60.3506C54.4668 58.9904 56.2364 58.5547 57.5966 59.3775C57.6716 59.4229 57.7474 59.4687 57.824 59.5149C60.1358 60.9108 63.1365 62.7226 64.8862 66.058C65.9848 68.1524 66.4288 70.3884 66.7155 72.2896C66.9526 73.8616 65.8705 75.328 64.2985 75.5651C62.7266 75.8022 61.2601 74.72 61.0231 73.1481C60.7586 71.3942 60.424 69.9442 59.7882 68.7323C58.8442 66.9326 57.1903 65.8598 54.617 64.3033C53.2568 63.4805 52.8212 61.7108 53.644 60.3506Z" fill="#FFE7FB"/>
</g>
<g style="mix-blend-mode:multiply">
<path fill-rule="evenodd" clip-rule="evenodd" d="M103.742 118.03C104.167 119.562 103.27 121.148 101.738 121.573C92.7643 124.063 83.5114 125.381 74.4979 126.665C72.7888 126.908 71.0884 127.15 69.4001 127.399C67.8274 127.631 66.3646 126.544 66.1329 124.971C65.9012 123.398 66.9883 121.935 68.561 121.704C70.3062 121.447 72.0447 121.199 73.7761 120.952C82.7921 119.666 91.6165 118.407 100.199 116.026C101.731 115.601 103.317 116.498 103.742 118.03Z" fill="#FFE7FB"/>
</g>
<g style="mix-blend-mode:multiply">
<path fill-rule="evenodd" clip-rule="evenodd" d="M102.097 125.779C102.539 127.306 101.659 128.902 100.132 129.344C96.8448 130.296 93.4787 130.918 90.277 131.511C89.7006 131.617 89.1294 131.723 88.565 131.829C87.0028 132.124 85.4977 131.096 85.2031 129.534C84.9086 127.972 85.9362 126.467 87.4984 126.172C88.1009 126.058 88.6973 125.948 89.2881 125.838C92.4956 125.244 95.5414 124.68 98.5313 123.814C100.058 123.372 101.655 124.252 102.097 125.779Z" fill="#FFEDA5"/>
</g>
<path fill-rule="evenodd" clip-rule="evenodd" d="M9.98695 2.45392C11.1907 3.49222 11.3249 5.30978 10.2866 6.51356C9.93561 6.9205 9.42637 7.86911 9.01 9.35589C8.611 10.7806 8.36507 12.4599 8.36511 14.1218C8.36515 15.7115 7.07648 17.0002 5.48678 17.0002C3.89708 17.0003 2.60834 15.7116 2.6083 14.1219C2.60824 11.9288 2.92768 9.72734 3.46646 7.80344C3.98787 5.94156 4.78881 4.07354 5.92732 2.75357C6.96561 1.54979 8.78317 1.41563 9.98695 2.45392Z" fill="#6DDFA6"/>
<path fill-rule="evenodd" clip-rule="evenodd" d="M94.6492 19.0212C96.1205 19.6231 96.8253 21.3038 96.2234 22.7752C96.0944 23.0905 95.9684 23.3952 95.846 23.6914C95.0107 25.7122 94.3413 27.3317 94.0034 29.1812C93.7177 30.745 92.2184 31.7812 90.6546 31.4955C89.0908 31.2098 88.0546 29.7104 88.3403 28.1466C88.7965 25.6496 89.7209 23.4254 90.5432 21.4468C90.6633 21.1578 90.7812 20.8741 90.8952 20.5955C91.4971 19.1241 93.1778 18.4193 94.6492 19.0212Z" fill="#E5FBED"/>
<path fill-rule="evenodd" clip-rule="evenodd" d="M107.815 18.3111C109.07 19.287 109.296 21.0955 108.32 22.3503C105.955 25.3908 103.665 28.4806 101.408 31.6268C100.482 32.9185 98.6832 33.2146 97.3914 32.2881C96.0997 31.3616 95.8036 29.5633 96.7301 28.2715C99.0212 25.0772 101.356 21.9262 103.776 18.816C104.752 17.5611 106.56 17.3351 107.815 18.3111Z" fill="#FF8FA9"/>
<path fill-rule="evenodd" clip-rule="evenodd" d="M109.224 36.4875C109.569 38.0394 108.591 39.5769 107.039 39.9218C105.007 40.3733 103.062 40.5865 101.098 40.7185C99.5116 40.825 98.1395 39.6255 98.0329 38.0394C97.9264 36.4533 99.1259 35.0811 100.712 34.9746C102.517 34.8533 104.147 34.6672 105.79 34.3021C107.342 33.9572 108.879 34.9357 109.224 36.4875Z" fill="#FFA86D"/>
<path fill-rule="evenodd" clip-rule="evenodd" d="M10.3784 126.19C11.2783 127.5 10.9454 129.292 9.63496 130.192C8.20351 131.175 6.6204 132.245 4.81011 133.097C3.37155 133.773 1.65693 133.155 0.980401 131.717C0.303869 130.278 0.921615 128.564 2.36017 127.887C3.69806 127.258 4.93283 126.437 6.37614 125.446C7.68661 124.546 9.47847 124.879 10.3784 126.19Z" fill="#FFEDA5"/>
<path fill-rule="evenodd" clip-rule="evenodd" d="M15.6973 129.749C14.1654 129.325 12.5793 130.222 12.1547 131.754C11.6756 133.483 10.9457 135.074 10.1155 136.883C9.83384 137.497 9.54067 138.136 9.24182 138.814C8.60073 140.269 9.26029 141.968 10.715 142.609C12.1697 143.25 13.8687 142.591 14.5097 141.136C14.7266 140.644 14.9656 140.124 15.2149 139.582C16.0882 137.683 17.0877 135.509 17.7024 133.292C18.1269 131.76 17.2293 130.174 15.6973 129.749Z" fill="#FFA86D"/>
</svg>
