<svg width="24" height="24" viewBox="0 0 24 24" fill="none" xmlns="http://www.w3.org/2000/svg">
<path d="M0 2.60241C0 1.16514 1.16514 0 2.60241 0H21.3976C22.8349 0 24 1.16514 24 2.60241V21.3976C24 22.8349 22.8349 24 21.3976 24H2.60241C1.16514 24 0 22.8349 0 21.3976V2.60241Z" fill="#00DA93"/>
<path d="M17.2153 13.5581L13.987 12.499C13.508 12.3415 13.508 11.657 13.987 11.4996L17.2153 10.4405C17.4312 10.3699 17.5497 10.1356 17.4792 9.91764L17.228 9.13698C17.1582 8.91902 16.9261 8.79936 16.7102 8.87059L13.4819 9.92975C13.0029 10.0872 12.6043 9.53301 12.8999 9.12131L14.895 6.3484C15.0283 6.1632 14.9874 5.90322 14.804 5.7686L14.1458 5.28567C13.9624 5.15105 13.7049 5.19236 13.5715 5.37755L11.5764 8.15047C11.2801 8.56217 10.6353 8.35062 10.6353 7.84205V4.41526C10.6353 4.18591 10.4512 4 10.224 4H9.4113C9.18413 4 9 4.18591 9 4.41526V19.5847C9 19.8141 9.18413 20 9.4113 20H10.2247C10.4519 20 10.636 19.8141 10.636 19.5847V16.1579C10.636 15.6494 11.2808 15.4378 11.5771 15.8495L13.5722 18.6224C13.7056 18.8076 13.9624 18.849 14.1465 18.7143L14.8047 18.2314C14.9881 18.0968 15.029 17.8368 14.8957 17.6516L12.9006 14.8787C12.6043 14.467 13.0029 13.9128 13.4826 14.0702L16.7109 15.1294C16.9268 15.1999 17.1589 15.081 17.2287 14.863L17.4799 14.0816C17.5497 13.8637 17.4319 13.6293 17.216 13.5588L17.2153 13.5581Z" fill="white"/>
</svg>
